<?xml version="1.0" encoding="utf-8"?>
<!-- Generator: Adobe Illustrator 19.0.0, SVG Export Plug-In . SVG Version: 6.00 Build 0)  -->
<svg version="1.1" id="Layer_1" xmlns="http://www.w3.org/2000/svg" xmlns:xlink="http://www.w3.org/1999/xlink" x="0px" y="0px"
	 viewBox="0 0 275.9 275.9" style="enable-background:new 0 0 275.9 275.9;" xml:space="preserve">
<style type="text/css">
	.st0{fill-rule:evenodd;clip-rule:evenodd;fill:#DAB96E;}
</style>
<g id="XMLID_2_">
	<path id="XMLID_5_" class="st0" d="M14.7,261.2c0.1-0.2,0.2-0.4,0.4-0.7c0.1-0.2,0.1-0.4,0.2-0.7c0.2-1.1,0.1-2.4-0.6-3.4
		c0.5-0.2,1.1,0.2,1.3,0.6c0.4,0.6,0.3,1,0.2,1.5c-0.1,0.4,0.4,0.5,0.5,0.1c0-0.1,0-0.3,0-0.4c0-0.1,0-0.1,0-0.2l0,0
		c0.1-0.5,0.4-0.7,0.8-0.8c0.4-0.1,0.9-0.1,1.3,0c0.1,0.4,0.1,0.9,0,1.3c-0.1,0.4-0.4,0.7-0.8,0.8v0l0,0c0,0-0.1,0-0.2,0
		c-0.1,0-0.3,0-0.4,0c-0.4,0.1-0.3,0.6,0.1,0.5c0.5-0.1,0.8-0.2,1.5,0.2c0.4,0.3,0.8,0.8,0.6,1.3c-1-0.7-2.3-0.8-3.4-0.6
		c-0.2,0-0.5,0.1-0.7,0.2C15.2,261,15,261.1,14.7,261.2L14.7,261.2z M2.3,273.7c0.8,0.1,1.8,0.2,2.5-0.4c0.6-0.5,0.5-1.1,0.7-1.7
		c0.2-0.5,0.7-0.2,0.7,0.2c0,0.2,0,0.3-0.1,0.5c0,0,0,0.1-0.1,0.2c-0.2,0.5-0.1,0.9,0.1,1.4c0.1,0.2,0.3,0.4,0.6,0.5
		c0.2,0.1,0.5,0.2,0.7,0.3c0.4,0.1,0.8,0.1,1.2-0.1c-2.1-1.6-2.4-4.2-0.9-6.2c-2,1.5-4.6,1.2-6.2-0.9c-0.1,0.3-0.2,0.7-0.1,1.2
		c0.1,0.3,0.2,0.5,0.3,0.7c0.1,0.2,0.3,0.4,0.5,0.6c0.4,0.3,0.9,0.3,1.4,0.1c0.1,0,0.1,0,0.2-0.1c0.2-0.1,0.3-0.1,0.5-0.1
		c0.4,0,0.6,0.5,0.2,0.7c-0.6,0.2-1.2,0.1-1.7,0.7C2.1,271.8,2.1,272.9,2.3,273.7z M273.7,273.7c-0.8,0.1-1.8,0.2-2.5-0.4
		c-0.6-0.5-0.5-1.1-0.7-1.7c-0.2-0.5-0.7-0.2-0.7,0.2c0,0.2,0,0.3,0.1,0.5c0,0,0,0.1,0.1,0.2c0.2,0.5,0.1,0.9-0.1,1.4
		c-0.1,0.2-0.3,0.4-0.6,0.5c-0.2,0.1-0.5,0.2-0.7,0.3c-0.4,0.1-0.8,0.1-1.2-0.1c2.1-1.6,2.4-4.2,0.9-6.2c2,1.5,4.6,1.2,6.2-0.9
		c0.1,0.3,0.2,0.7,0.1,1.2c-0.1,0.3-0.2,0.5-0.3,0.7c-0.1,0.2-0.3,0.4-0.5,0.6c-0.4,0.3-0.9,0.3-1.4,0.1c-0.1,0-0.1,0-0.2-0.1
		c-0.2-0.1-0.3-0.1-0.5-0.1c-0.4,0-0.6,0.5-0.2,0.7c0.6,0.2,1.2,0.1,1.7,0.7C273.8,271.8,273.8,272.9,273.7,273.7z M267.2,267.3
		c1.6,2.3,1.8,5.1-0.6,7c0.7,0.7,1.8,0.8,2.7,0.3c0.7-0.4,1.2-1,1.3-1.6c0.1,0.2,0.2,0.3,0.4,0.5c0.7,0.6,1.9,0.7,2.8,0.5
		c0.1,0,0.2-0.1,0.2-0.2c0.2-1,0.1-2.1-0.5-2.8c-0.1-0.1-0.3-0.3-0.5-0.4c0.6-0.1,1.2-0.6,1.6-1.3c0.5-0.9,0.4-2-0.3-2.7
		c-1.8,2.4-4.7,2.2-7,0.6C267.1,267.1,267.1,267.1,267.2,267.3z M8.7,267.3c-1.6,2.3-1.8,5.1,0.6,7c-0.7,0.7-1.8,0.8-2.7,0.3
		c-0.7-0.4-1.2-1-1.3-1.6c-0.1,0.2-0.2,0.3-0.4,0.5c-0.7,0.6-1.9,0.7-2.8,0.5C2,274,2,273.9,2,273.8c-0.2-1-0.1-2.1,0.5-2.8
		c0.1-0.1,0.3-0.3,0.5-0.4c-0.6-0.1-1.2-0.6-1.6-1.3c-0.5-0.9-0.4-2,0.3-2.7c1.8,2.4,4.7,2.2,7,0.6C8.8,267.1,8.9,267.1,8.7,267.3z
		 M19.1,256.6c-0.8-0.2-2.1-0.2-2.5,0.6c-0.3-1.3-1.9-1.8-2.6-1.1c0.4,0.3,0.7,0.8,0.8,1.3c0.3,0.8,0.3,1.6,0.1,2.4
		c0,0.2-0.1,0.4-0.2,0.6c-0.2,0.4-0.4,0.8-0.6,1.2c-0.1,0.1,0.1,0.3,0.2,0.2c0.4-0.2,0.8-0.5,1.2-0.6c0.2-0.1,0.4-0.1,0.6-0.2
		c0.8-0.2,1.6-0.1,2.4,0.1c0.5,0.2,0.9,0.5,1.3,0.8c0.7-0.7,0.2-2.4-1.1-2.6c0.8-0.4,0.8-1.6,0.6-2.5
		C19.3,256.7,19.3,256.6,19.1,256.6z M10.4,264c0.3,0,0.6,0,0.9,0c0-1,0.1-1.9,0.2-2.9c0.2-2.1,0.4-4.1-0.1-6.2l0,0l0,0c0,0,0,0,0,0
		c-0.1-0.3-0.2-0.6-0.3-0.9c-0.1-0.3-0.2-0.6-0.4-0.8c-0.7-1.3-1.9-2.3-3.3-2.6c-1.1-0.3-3.1-0.3-3.7,0.9c-0.3,0.7-0.2,1.9,0.8,2.1
		c1.1,0.2,1.3-1.4,0.5-1.7v0c0,0-0.1-0.1-0.1-0.1c0-0.1,0-0.2,0.1-0.2c0.2,0,0.4-0.1,0.5-0.1c1.3-0.1,2.4,0.2,3.3,1
		c0.8,0.7,1.4,1.8,1.6,3.1l0,0c0,0.3,0.1,0.5,0.1,0.8c0.2,1.7,0.1,3.4-0.1,5.1C10.5,262.3,10.4,263.1,10.4,264z M261.2,261.2
		c-0.1-0.2-0.2-0.4-0.4-0.7c-0.1-0.2-0.1-0.4-0.2-0.7c-0.2-1.1-0.1-2.4,0.6-3.4c-0.5-0.2-1.1,0.2-1.3,0.6c-0.4,0.6-0.3,1-0.2,1.5
		c0.1,0.4-0.4,0.5-0.5,0.1c0-0.1,0-0.3,0-0.4c0-0.1,0-0.1,0-0.2l0,0h0c-0.1-0.5-0.4-0.7-0.8-0.8c-0.4-0.1-0.9-0.1-1.3,0
		c-0.1,0.4-0.1,0.9,0,1.3c0.1,0.4,0.4,0.7,0.8,0.8l0,0l0,0c0,0,0.1,0,0.2,0c0.1,0,0.3,0,0.4,0c0.4,0.1,0.3,0.6-0.1,0.5
		c-0.5-0.1-0.8-0.2-1.5,0.2c-0.4,0.3-0.8,0.8-0.6,1.3c1-0.7,2.3-0.8,3.4-0.6c0.2,0,0.5,0.1,0.7,0.2C260.8,261,261,261.1,261.2,261.2
		z M256.9,256.6c0.8-0.2,2.1-0.2,2.5,0.6c0.3-1.3,1.9-1.8,2.6-1.1c-0.4,0.3-0.7,0.8-0.8,1.3c-0.3,0.8-0.3,1.6-0.1,2.4
		c0,0.2,0.1,0.4,0.2,0.6c0.2,0.4,0.4,0.8,0.6,1.2c0.1,0.1-0.1,0.3-0.2,0.2c-0.4-0.2-0.8-0.5-1.2-0.6c-0.2-0.1-0.4-0.1-0.6-0.2
		c-0.8-0.2-1.6-0.1-2.4,0.1c-0.5,0.2-0.9,0.5-1.3,0.8c-0.7-0.7-0.2-2.4,1.1-2.6c-0.8-0.4-0.8-1.6-0.6-2.5
		C256.6,256.7,256.7,256.6,256.9,256.6z M265.5,264c-0.3,0-0.6,0-0.9,0c0-1-0.1-1.9-0.2-2.9c-0.2-2.1-0.4-4.1,0.1-6.2l0,0l0,0
		c0,0,0,0,0,0c0.1-0.3,0.2-0.6,0.3-0.9c0.1-0.3,0.2-0.6,0.4-0.8c0.7-1.3,1.9-2.3,3.3-2.6c1.1-0.3,3.1-0.3,3.7,0.9
		c0.3,0.7,0.2,1.9-0.8,2.1c-1.1,0.2-1.3-1.4-0.5-1.7v0c0,0,0.1-0.1,0.1-0.1c0-0.1,0-0.2-0.1-0.2c-0.2,0-0.4-0.1-0.5-0.1
		c-1.3-0.1-2.4,0.2-3.3,1c-0.8,0.7-1.4,1.8-1.6,3.1l0,0c0,0.3-0.1,0.5-0.1,0.8c-0.2,1.7-0.1,3.4,0.1,5.1
		C265.4,262.3,265.5,263.1,265.5,264z M10.4,12c0,0.8,0.1,1.7,0.1,2.5c0.1,1.7,0.2,3.4,0.1,5.1c0,0.3-0.1,0.5-0.1,0.8l0,0
		c-0.3,1.3-0.8,2.4-1.6,3.1c-0.8,0.7-1.9,1.1-3.3,1c-0.2,0-0.4,0-0.5-0.1c-0.1,0-0.1-0.1-0.1-0.2c0-0.1,0-0.1,0.1-0.1v0
		c0.7-0.4,0.6-1.9-0.5-1.7c-0.9,0.2-1.1,1.4-0.8,2.1c0.6,1.2,2.6,1.2,3.7,0.9c1.4-0.3,2.5-1.3,3.3-2.6c0.1-0.3,0.3-0.5,0.4-0.8
		c0.1-0.3,0.2-0.6,0.3-0.9c0,0,0,0,0,0l0,0h0c0.5-2.1,0.3-4.1,0.1-6.2c-0.1-1-0.2-1.9-0.2-2.9C11,12,10.7,12,10.4,12z M14.7,14.7
		c0.1,0.2,0.2,0.4,0.4,0.7c0.1,0.2,0.1,0.4,0.2,0.7c0.2,1.1,0.1,2.4-0.6,3.4c0.5,0.2,1.1-0.2,1.3-0.6c0.4-0.6,0.3-1,0.2-1.5
		c-0.1-0.4,0.4-0.5,0.5-0.1c0,0.1,0,0.3,0,0.4c0,0.1,0,0.1,0,0.2l0,0l0,0c0.1,0.5,0.4,0.7,0.8,0.8c0.4,0.1,0.9,0.1,1.3,0
		c0.1-0.4,0.1-0.9,0-1.3c-0.1-0.4-0.4-0.7-0.8-0.8v0l0,0c0,0-0.1,0-0.2,0c-0.1,0-0.3,0-0.4,0c-0.4-0.1-0.3-0.6,0.1-0.5
		c0.5,0.1,0.8,0.2,1.5-0.2c0.4-0.3,0.8-0.8,0.6-1.3c-1,0.7-2.3,0.8-3.4,0.6c-0.2,0-0.5-0.1-0.7-0.2C15.2,15,15,14.9,14.7,14.7z
		 M19.1,19.4c-0.8,0.2-2.1,0.2-2.5-0.6c-0.3,1.3-1.9,1.8-2.6,1.1c0.4-0.3,0.7-0.8,0.8-1.3c0.3-0.8,0.3-1.6,0.1-2.4
		c0-0.2-0.1-0.4-0.2-0.6c-0.2-0.4-0.4-0.8-0.6-1.2c-0.1-0.1,0.1-0.3,0.2-0.2c0.4,0.2,0.8,0.5,1.2,0.6c0.2,0.1,0.4,0.1,0.6,0.2
		c0.8,0.2,1.6,0.1,2.4-0.1c0.5-0.2,0.9-0.5,1.3-0.8c0.7,0.7,0.2,2.4-1.1,2.6c0.8,0.4,0.8,1.6,0.6,2.5C19.3,19.3,19.3,19.3,19.1,19.4
		z M2.3,2.3c0.8-0.1,1.8-0.2,2.5,0.4c0.6,0.5,0.5,1.1,0.7,1.7c0.2,0.5,0.7,0.2,0.7-0.2c0-0.2,0-0.3-0.1-0.5c0,0,0-0.1-0.1-0.2
		C5.8,3.1,5.8,2.6,6.1,2.2C6.3,2,6.4,1.8,6.7,1.7c0.2-0.1,0.5-0.2,0.7-0.3c0.4-0.1,0.8-0.1,1.2,0.1C6.5,3.1,6.2,5.6,7.7,7.7
		c-2-1.5-4.6-1.2-6.2,0.9C1.3,8.2,1.3,7.8,1.4,7.4c0.1-0.3,0.2-0.5,0.3-0.7C1.8,6.4,2,6.3,2.2,6.1C2.6,5.8,3.1,5.8,3.6,6
		C3.6,6,3.7,6,3.7,6c0.2,0.1,0.3,0.1,0.5,0.1c0.4,0,0.6-0.5,0.2-0.7C3.8,5.2,3.2,5.4,2.7,4.8C2.1,4.1,2.1,3.1,2.3,2.3z M8.7,8.6
		c-1.6-2.3-1.8-5.1,0.6-7C8.6,0.9,7.6,0.9,6.6,1.3c-0.7,0.4-1.2,1-1.3,1.6C5.3,2.8,5.1,2.6,5,2.5C4.3,1.8,3.1,1.8,2.2,2
		C2,2,2,2,2,2.2C1.8,3.1,1.8,4.3,2.5,5c0.1,0.1,0.3,0.3,0.5,0.4C2.3,5.4,1.7,5.9,1.3,6.6c-0.5,0.9-0.4,2,0.3,2.7
		c1.8-2.4,4.7-2.2,7-0.6C8.8,8.9,8.9,8.8,8.7,8.6z M265.5,12c0,0.8-0.1,1.7-0.1,2.5c-0.1,1.7-0.2,3.4-0.1,5.1c0,0.3,0.1,0.5,0.1,0.8
		l0,0c0.3,1.3,0.8,2.4,1.6,3.1c0.8,0.7,1.9,1.1,3.3,1c0.2,0,0.4,0,0.5-0.1c0.1,0,0.1-0.1,0.1-0.2c0-0.1,0-0.1-0.1-0.1v0
		c-0.7-0.4-0.6-1.9,0.5-1.7c0.9,0.2,1.1,1.4,0.8,2.1c-0.6,1.2-2.6,1.2-3.7,0.9c-1.4-0.3-2.5-1.3-3.3-2.6c-0.1-0.3-0.3-0.5-0.4-0.8
		c-0.1-0.3-0.2-0.6-0.3-0.9c0,0,0,0,0,0l0,0h0c-0.5-2.1-0.3-4.1-0.1-6.2c0.1-1,0.2-1.9,0.2-2.9C265,12,265.2,12,265.5,12z
		 M261.2,14.7c-0.1,0.2-0.2,0.4-0.4,0.7c-0.1,0.2-0.1,0.4-0.2,0.7c-0.2,1.1-0.1,2.4,0.6,3.4c-0.5,0.2-1.1-0.2-1.3-0.6
		c-0.4-0.6-0.3-1-0.2-1.5c0.1-0.4-0.4-0.5-0.5-0.1c0,0.1,0,0.3,0,0.4c0,0.1,0,0.1,0,0.2l0,0l0,0c-0.1,0.5-0.4,0.7-0.8,0.8
		c-0.4,0.1-0.9,0.1-1.3,0c-0.1-0.4-0.1-0.9,0-1.3c0.1-0.4,0.4-0.7,0.8-0.8v0l0,0c0,0,0.1,0,0.2,0c0.1,0,0.3,0,0.4,0
		c0.4-0.1,0.3-0.6-0.1-0.5c-0.5,0.1-0.8,0.2-1.5-0.2c-0.4-0.3-0.8-0.8-0.6-1.3c1,0.7,2.3,0.8,3.4,0.6c0.2,0,0.5-0.1,0.7-0.2
		C260.8,15,261,14.9,261.2,14.7z M256.9,19.4c0.8,0.2,2.1,0.2,2.5-0.6c0.3,1.3,1.9,1.8,2.6,1.1c-0.4-0.3-0.7-0.8-0.8-1.3
		c-0.3-0.8-0.3-1.6-0.1-2.4c0-0.2,0.1-0.4,0.2-0.6c0.2-0.4,0.4-0.8,0.6-1.2c0.1-0.1-0.1-0.3-0.2-0.2c-0.4,0.2-0.8,0.5-1.2,0.6
		c-0.2,0.1-0.4,0.1-0.6,0.2c-0.8,0.2-1.6,0.1-2.4-0.1c-0.5-0.2-0.9-0.5-1.3-0.8c-0.7,0.7-0.2,2.4,1.1,2.6c-0.8,0.4-0.8,1.6-0.6,2.5
		C256.6,19.3,256.7,19.3,256.9,19.4z M273.7,2.3c-0.8-0.1-1.8-0.2-2.5,0.4c-0.6,0.5-0.5,1.1-0.7,1.7c-0.2,0.5-0.7,0.2-0.7-0.2
		c0-0.2,0-0.3,0.1-0.5c0,0,0-0.1,0.1-0.2c0.2-0.5,0.1-0.9-0.1-1.4c-0.1-0.2-0.3-0.4-0.6-0.5c-0.2-0.1-0.5-0.2-0.7-0.3
		c-0.4-0.1-0.8-0.1-1.2,0.1c2.1,1.6,2.4,4.2,0.9,6.2c2-1.5,4.6-1.2,6.2,0.9c0.1-0.3,0.2-0.7,0.1-1.2c-0.1-0.3-0.2-0.5-0.3-0.7
		c-0.1-0.2-0.3-0.4-0.5-0.6c-0.4-0.3-0.9-0.3-1.4-0.1c-0.1,0-0.1,0-0.2,0.1c-0.2,0.1-0.3,0.1-0.5,0.1c-0.4,0-0.6-0.5-0.2-0.7
		c0.6-0.2,1.2-0.1,1.7-0.7C273.8,4.1,273.8,3.1,273.7,2.3z M267.2,8.6c1.6-2.3,1.8-5.1-0.6-7c0.7-0.7,1.8-0.8,2.7-0.3
		c0.7,0.4,1.2,1,1.3,1.6c0.1-0.2,0.2-0.3,0.4-0.5c0.7-0.6,1.9-0.7,2.8-0.5c0.1,0,0.2,0.1,0.2,0.2c0.2,1,0.1,2.1-0.5,2.8
		c-0.1,0.1-0.3,0.3-0.5,0.4c0.6,0.1,1.2,0.6,1.6,1.3c0.5,0.9,0.4,2-0.3,2.7c-1.8-2.4-4.7-2.2-7-0.6C267.1,8.9,267.1,8.8,267.2,8.6z
		 M167.2,0.3h-60.9H92.6h-1.9h-52v0H25.7c-3.1,0-6.4-0.1-9.1,0.9c-2.3,0.8-4.2,2.4-5.3,5.2c-0.5,1.2-0.7,2.5-0.8,3.7
		c0.3,0,0.6,0,0.9,0c0-0.1,0-0.3,0-0.4c0.3-3,1.8-5.4,4.1-6.9c0.4-0.3,0.9-0.5,1.5-0.7c0.1,0,0.8-0.2,1.4-0.3
		c-0.8,0.5-1.7,1.3-2,2.2c-0.4,1,0.4,1.6,1,0.6c-0.3,1.8,0.7,2.5,2.2,2.6C18,6,18.2,3.7,19.5,2.5c0.5-0.5,1.2-0.7,1.9-0.9
		c1.4-0.4,2.9-0.3,4.3-0.3l7.5,0v0h57.6h1.9v0h3.5v0h10.1h60.9h0.8l14.9,0v0h57.8v0l9.6,0c1.4,0,2.9,0,4.3,0.3
		c0.7,0.2,1.4,0.5,1.9,0.9c1.3,1.2,1.5,3.4,0.1,4.6c1.5,0,2.5-0.7,2.2-2.6c0.6,1,1.4,0.5,1-0.6c-0.4-0.8-1.2-1.7-2-2.2
		c0.6,0.1,1.3,0.3,1.4,0.3c0.5,0.2,1,0.4,1.5,0.7c2.3,1.4,3.8,3.9,4.1,6.9c0,0.1,0,0.3,0,0.4c0.3,0,0.6,0,0.9,0
		c-0.1-1.2-0.3-2.5-0.8-3.7c-1.1-2.8-3-4.4-5.3-5.2c-2.7-1-6.1-0.9-9.1-0.9h-13.1v0h-54.4h-6.2H167.2z M168.5,275.6l-63.8,0v0h-1.3
		H103H90.7v0h-52v0l-13.1,0c-3.1,0-6.4,0.1-9.1-0.9c-2.3-0.8-4.2-2.4-5.3-5.2c-0.5-1.2-0.7-2.5-0.8-3.7c0.3,0,0.6,0,0.9,0
		c0,0.1,0,0.3,0,0.4c0.3,3,1.8,5.4,4.1,6.9c0.4,0.3,0.9,0.5,1.5,0.7c0.1,0,0.8,0.2,1.4,0.3c-0.8-0.5-1.7-1.3-2-2.2
		c-0.4-1,0.4-1.6,1-0.6c-0.3-1.8,0.7-2.5,2.2-2.6c-1.5,1.1-1.3,3.4,0.1,4.6c0.5,0.5,1.2,0.7,1.9,0.9c1.4,0.4,2.9,0.3,4.3,0.3h13.1v0
		l52,0v0l12.3,0v0h0.4v0h1.3v0h63.8v0l14.3,0v0l54.4,0v0h13.1c1.4,0,2.9,0,4.3-0.3c0.7-0.2,1.4-0.5,1.9-0.9c1.3-1.2,1.5-3.4,0.1-4.6
		c1.5,0,2.5,0.7,2.2,2.6c0.6-1,1.4-0.5,1,0.6c-0.4,0.8-1.2,1.7-2,2.2c0.6-0.1,1.3-0.3,1.4-0.3c0.5-0.2,1-0.4,1.5-0.7
		c2.3-1.4,3.8-3.9,4.1-6.9c0-0.1,0-0.3,0-0.4c0.3,0,0.6,0,0.9,0c-0.1,1.2-0.3,2.5-0.8,3.7c-1.1,2.8-3,4.4-5.3,5.2
		c-2.7,1-6.1,0.9-9.1,0.9l-13.1,0v0l-54.4,0v0H168.5L168.5,275.6z M274,114.2v44.3v3.9v3.2v1.3v17v53.2l0,13.1c0,1.5,0.1,3-0.4,4.5
		c-0.9,2.7-3.6,3.4-5.3,0.8c-0.1,0.5-0.2,1-0.1,1.5c0.2,1.1,1.1,1.9,2.1,1.9c-0.1,0.1-0.1,0.3-0.1,0.4c0,0.2,0,0.4,0.1,0.5
		c0.1,0.1,0.3,0.2,0.4,0.3c0.7,0.2,1.6-0.3,2.2-0.8c0,0,0,0,0,0c-0.1,0.3-0.3,0.5-0.4,0.8c-1.3,2.1-3.6,3.5-6.4,3.8
		c-0.1,0-0.2,0-0.3,0c0-0.8-0.1-1.7-0.1-2.5c-0.1-1.7-0.2-3.4-0.1-5.1c0-0.3,0.1-0.5,0.1-0.8l0,0c0.2-1.3,0.8-2.3,1.5-3
		c0.9-0.8,1.7-0.9,2.7-0.9c-0.6,1,0.2,2.3,1.5,2.1c1.1-0.2,1.4-1.6,1.1-2.5c-0.3-0.8-1.1-1.4-2.1-1.6c-0.7-0.1-1.4,0-2,0.1
		c-1.6,0.4-2.9,1.5-3.7,3c-0.2,0.3-0.3,0.6-0.4,0.9c-0.1,0.3-0.2,0.6-0.3,1c0,0,0,0,0,0l0,0l0,0l0,0l0,0c-0.5,2.2-0.3,4.3-0.1,6.4
		c0.1,0.9,0.2,1.9,0.2,2.8c-0.9,0-1.9-0.1-2.8-0.2c-2.1-0.2-4.2-0.4-6.4,0.1l0,0l0,0l0,0l0,0c0,0,0,0,0,0c-0.3,0.1-0.7,0.2-1,0.3
		c-0.3,0.1-0.6,0.3-0.9,0.4c-1.5,0.8-2.6,2.1-3,3.7c-0.1,0.6-0.2,1.3-0.1,2c0.1,1,0.8,1.8,1.6,2.1c0.9,0.4,2.4,0.1,2.5-1.1
		c0.2-1.2-1.2-2.1-2.1-1.5c0-1,0.1-1.8,0.9-2.7c0.7-0.8,1.7-1.3,3-1.5l0,0c0.2,0,0.5-0.1,0.8-0.1c1.7-0.2,3.4-0.1,5.1,0.1
		c0.8,0.1,1.7,0.1,2.5,0.1c0,0.1,0,0.2,0,0.3c-0.3,2.7-1.6,5-3.8,6.4c-0.2,0.2-0.5,0.3-0.8,0.4c0,0,0,0,0,0c0.5-0.5,1-1.5,0.8-2.2
		c-0.1-0.2-0.2-0.3-0.3-0.4c-0.1-0.1-0.3-0.2-0.5-0.1c-0.1,0-0.3,0.1-0.4,0.1c-0.1-1-0.9-1.9-1.9-2.1c-0.5-0.1-1-0.1-1.5,0.1
		c2.6,1.7,1.9,4.4-0.8,5.3c-1.4,0.5-3,0.4-4.5,0.4h-9.6l-57.8,0v0h-14.3v0l-63.8,0v0h-1.3H103H90.7v0h-52h-5.6h-7.5
		c-1.5,0-3,0.1-4.5-0.4c-2.7-0.9-3.4-3.6-0.8-5.3c-0.5-0.1-1-0.2-1.5-0.1c-1.1,0.2-1.9,1.1-1.9,2.1c-0.1-0.1-0.3-0.1-0.4-0.1
		c-0.2,0-0.4,0-0.5,0.1c-0.1,0.1-0.2,0.3-0.3,0.4c-0.2,0.7,0.3,1.6,0.8,2.2c0,0,0,0,0,0c-0.3-0.1-0.5-0.3-0.8-0.4
		c-2.1-1.3-3.5-3.6-3.8-6.4c0-0.1,0-0.2,0-0.3c0.8,0,1.7-0.1,2.5-0.1c1.7-0.1,3.4-0.2,5.1-0.1c0.3,0,0.5,0.1,0.8,0.1h0
		c1.3,0.2,2.3,0.8,3,1.5c0.8,0.9,0.9,1.7,0.9,2.7c-1-0.6-2.3,0.2-2.1,1.4c0.2,1.1,1.6,1.4,2.5,1.1c0.8-0.3,1.4-1.1,1.6-2.1
		c0.1-0.7,0-1.4-0.1-2c-0.4-1.6-1.5-2.9-3-3.7c-0.3-0.2-0.6-0.3-0.9-0.4c-0.3-0.1-0.6-0.2-1-0.3c0,0,0,0,0,0h0h0h0h0
		c-2.2-0.5-4.3-0.3-6.4-0.1c-0.9,0.1-1.9,0.2-2.8,0.2c0-0.9,0.1-1.9,0.2-2.8c0.2-2.1,0.4-4.2-0.1-6.4l0,0l0,0l0,0l0,0c0,0,0,0,0,0
		c-0.1-0.3-0.2-0.7-0.3-1c-0.1-0.3-0.3-0.6-0.4-0.9c-0.8-1.5-2.1-2.6-3.7-3c-0.6-0.1-1.3-0.2-2-0.1c-1,0.1-1.8,0.8-2.1,1.6
		c-0.4,0.9-0.1,2.4,1.1,2.5c1.2,0.2,2.1-1.2,1.5-2.1c1,0,1.8,0.1,2.7,0.9c0.8,0.7,1.3,1.7,1.5,3l0,0c0,0.2,0.1,0.5,0.1,0.8
		c0.2,1.7,0.1,3.4-0.1,5.1c-0.1,0.8-0.1,1.7-0.1,2.5c-0.1,0-0.2,0-0.3,0c-2.7-0.3-5-1.6-6.4-3.8c-0.2-0.2-0.3-0.5-0.4-0.8
		c0,0,0,0,0,0c0.5,0.5,1.5,1,2.2,0.8c0.2-0.1,0.3-0.2,0.4-0.3c0.1-0.1,0.2-0.3,0.1-0.5c0-0.1-0.1-0.3-0.1-0.4c1-0.1,1.9-0.9,2.1-1.9
		c0.1-0.5,0.1-1-0.1-1.5c-1.7,2.6-4.4,1.9-5.3-0.8c-0.5-1.4-0.4-3-0.4-4.5l0-8.6h0L2,184v-24.7h0v-48.4h0v-1.9h0V34.2h0l0-8.6
		c0-1.5-0.1-3,0.4-4.5c0.9-2.7,3.6-3.4,5.3-0.8c0.1-0.5,0.2-1,0.1-1.5c-0.2-1.1-1.1-1.9-2.1-1.9c0.1-0.1,0.1-0.3,0.1-0.4
		c0-0.2,0-0.4-0.1-0.5c-0.1-0.1-0.3-0.2-0.4-0.3c-0.7-0.2-1.6,0.3-2.2,0.8c0,0,0,0,0,0c0.1-0.3,0.3-0.5,0.4-0.8
		C4.7,13.7,7,12.4,9.8,12c0.1,0,0.2,0,0.3,0c0,0.8,0.1,1.7,0.1,2.5c0.1,1.7,0.2,3.4,0.1,5.1c0,0.3-0.1,0.5-0.1,0.8l0,0
		c-0.2,1.3-0.8,2.3-1.5,3C7.8,24.1,7,24.2,6,24.2c0.6-1-0.2-2.3-1.5-2.1c-1.1,0.2-1.4,1.6-1.1,2.5c0.3,0.8,1.1,1.4,2.1,1.6
		c0.7,0.1,1.4,0,2-0.1c1.6-0.4,2.9-1.5,3.7-3c0.2-0.3,0.3-0.6,0.4-0.9c0.1-0.3,0.2-0.6,0.3-1c0,0,0,0,0,0l0,0l0,0l0,0l0,0
		c0.5-2.2,0.3-4.3,0.1-6.4C12.1,13.8,12,12.9,12,12c0.9,0,1.9,0.1,2.8,0.2c2.1,0.2,4.2,0.4,6.4-0.1l0,0l0,0l0,0l0,0c0,0,0,0,0,0
		c0.3-0.1,0.7-0.2,1-0.3c0.3-0.1,0.6-0.3,0.9-0.4c1.5-0.8,2.6-2.1,3-3.7c0.1-0.6,0.2-1.3,0.1-2c-0.1-1-0.8-1.8-1.6-2.1
		c-0.9-0.4-2.4-0.1-2.5,1.1c-0.2,1.2,1.2,2.1,2.1,1.5c0,1-0.1,1.8-0.9,2.7c-0.7,0.8-1.7,1.3-3,1.5l0,0c-0.2,0-0.5,0.1-0.8,0.1
		c-1.7,0.2-3.4,0.1-5.1-0.1c-0.8-0.1-1.7-0.1-2.5-0.1c0-0.1,0-0.2,0-0.3c0.3-2.7,1.6-5,3.8-6.4c0.2-0.2,0.5-0.3,0.8-0.4c0,0,0,0,0,0
		c-0.5,0.5-1,1.5-0.8,2.2c0.1,0.2,0.2,0.3,0.3,0.4c0.1,0.1,0.3,0.2,0.5,0.1c0.1,0,0.3-0.1,0.4-0.1c0.1,1,0.9,1.9,1.9,2.1
		c0.5,0.1,1,0.1,1.5-0.1c-2.6-1.7-1.9-4.4,0.8-5.3c1.4-0.5,3-0.4,4.5-0.4h13.1v0h52h1.9h13.6h60.9h9.5h6.2h54.4v0h13.1
		c1.5,0,3-0.1,4.5,0.4c2.7,0.9,3.4,3.6,0.8,5.3c0.5,0.1,1,0.2,1.5,0.1c1.1-0.2,1.9-1.1,1.9-2.1c0.1,0.1,0.3,0.1,0.4,0.1
		c0.2,0,0.4,0,0.5-0.1c0.1-0.1,0.2-0.3,0.3-0.4c0.2-0.7-0.3-1.6-0.8-2.2c0,0,0,0,0,0c0.3,0.1,0.5,0.3,0.8,0.4
		c2.1,1.3,3.5,3.6,3.8,6.4c0,0.1,0,0.2,0,0.3c-0.8,0-1.7,0.1-2.5,0.1c-1.7,0.1-3.4,0.2-5.1,0.1c-0.3,0-0.5-0.1-0.8-0.1l0,0
		c-1.3-0.2-2.3-0.8-3-1.5c-0.8-0.9-0.9-1.7-0.9-2.7c1,0.6,2.3-0.2,2.1-1.5c-0.2-1.1-1.6-1.4-2.5-1.1c-0.8,0.3-1.4,1.1-1.6,2.1
		c-0.1,0.7,0,1.4,0.1,2c0.4,1.6,1.5,2.9,3,3.7c0.3,0.2,0.6,0.3,0.9,0.4c0.3,0.1,0.6,0.2,1,0.3c0,0,0,0,0,0l0,0l0,0l0,0l0,0
		c2.2,0.5,4.3,0.3,6.4,0.1c0.9-0.1,1.9-0.2,2.8-0.2c0,0.9-0.1,1.9-0.2,2.8c-0.2,2.1-0.4,4.2,0.1,6.4l0,0l0,0l0,0l0,0c0,0,0,0,0,0
		c0.1,0.3,0.2,0.7,0.3,1c0.1,0.3,0.3,0.6,0.4,0.9c0.8,1.5,2.1,2.6,3.7,3c0.6,0.1,1.3,0.2,2,0.1c1-0.1,1.8-0.8,2.1-1.6
		c0.4-0.9,0.1-2.4-1.1-2.5c-1.2-0.2-2.1,1.2-1.5,2.1c-1,0-1.8-0.1-2.7-0.9c-0.8-0.7-1.3-1.7-1.5-3l0,0c0-0.2-0.1-0.5-0.1-0.8
		c-0.2-1.7-0.1-3.4,0.1-5.1c0.1-0.8,0.1-1.7,0.1-2.5c0.1,0,0.2,0,0.3,0c2.7,0.3,5,1.6,6.4,3.8c0.2,0.2,0.3,0.5,0.4,0.8c0,0,0,0,0,0
		c-0.5-0.5-1.5-1-2.2-0.8c-0.2,0.1-0.3,0.2-0.4,0.3c-0.1,0.1-0.2,0.3-0.1,0.5c0,0.1,0.1,0.3,0.1,0.4c-1,0.1-1.9,0.9-2.1,1.9
		c-0.1,0.5-0.1,1,0.1,1.5c1.7-2.6,4.4-1.9,5.3,0.8c0.5,1.4,0.4,3,0.4,4.5l0,13.1v53.2v15.2v1.8V114.2z M275.9,162.5v-3.9h0v-44.3h0
		v-7.5V91.9h0l0-57.7h0l0-8.6c0-3.1,0-6.6-0.9-9.2c-0.9-2.4-2.5-4.3-5.4-5.5c-1.3-0.5-2.5-0.7-3.8-0.8c-0.1-1.3-0.3-2.6-0.8-3.8
		c-1.2-2.9-3.1-4.5-5.5-5.4C256.9,0,253.3,0,250.3,0l-9.6,0v0h-57.8h-6.2h-9.5H96.1h-3.5h-1.9H33.2v0l-7.5,0c-3.1,0-6.6,0-9.2,0.9
		c-2.4,0.9-4.3,2.5-5.5,5.4c-0.5,1.3-0.7,2.5-0.8,3.8c-1.3,0.1-2.6,0.3-3.8,0.8c-2.9,1.2-4.5,3.1-5.4,5.5C0,19.1,0,22.6,0,25.7
		l0,8.6h0v72.5v2.2v1.9v48.4h0v7.7h0v74.7h0l0,8.6c0,3.1,0,6.6,0.9,9.2c0.9,2.4,2.5,4.3,5.4,5.5c1.3,0.5,2.5,0.7,3.8,0.8
		c0.1,1.3,0.3,2.6,0.8,3.8c1.2,2.9,3.1,4.5,5.5,5.4c2.6,0.9,6.2,0.9,9.2,0.9l7.5,0v0l57.6,0v0H103l0,0h65.5v0l72.1,0v0l9.6,0
		c3.1,0,6.6,0,9.2-0.9c2.4-0.9,4.3-2.5,5.5-5.4c0.5-1.3,0.7-2.5,0.8-3.8c1.3-0.1,2.6-0.3,3.8-0.8c2.9-1.2,4.5-3.1,5.4-5.5
		c0.9-2.6,0.9-6.2,0.9-9.2l0-12.4l0-53.9v-17v-1.3V162.5z M275.6,114.2v44.3v3.9v3.2v1.3v17v53.2h0v13.1c0,3.1,0.1,6.4-0.9,9.1
		c-0.8,2.3-2.4,4.2-5.2,5.3c-2.6,1.1-5.3,0.9-8.1,0.7c-1.7-0.1-3.4-0.2-5.1-0.1c-0.3,0-0.5,0.1-0.8,0.1l0,0
		c-1.3,0.3-2.4,0.8-3.1,1.6c-0.7,0.8-1.1,1.9-1,3.3c0,0.2,0,0.4,0.1,0.5c0,0.1,0.1,0.1,0.2,0.1c0.1,0,0.1,0,0.1-0.1h0
		c0.4-0.7,1.9-0.6,1.7,0.5c-0.2,0.9-1.4,1.1-2.1,0.8c-1.2-0.6-1.2-2.6-0.9-3.7c0.3-1.4,1.3-2.5,2.6-3.3c0.3-0.1,0.5-0.3,0.8-0.4
		c0.3-0.1,0.6-0.2,0.9-0.3c0,0,0,0,0,0l0,0l0,0c2.1-0.5,4.1-0.3,6.2-0.1c1.7,0.1,3.4,0.3,5.1,0.1c3-0.3,5.4-1.8,6.9-4.1
		c0.3-0.4,0.5-0.9,0.7-1.4c0-0.1,0.2-0.8,0.3-1.4c-0.5,0.8-1.3,1.7-2.2,2c-1,0.4-1.6-0.4-0.6-1c-1.8,0.3-2.5-0.7-2.6-2.2
		c1.1,1.5,3.4,1.3,4.6-0.1c0.5-0.5,0.7-1.2,0.9-1.9c0.4-1.4,0.3-2.9,0.3-4.3l0-8.6l0,0v-59.8v-16.2h0v-7.1h0v-44.3l0,0v-5.3v-1.8
		v-0.3l0-14.9h0V34.2l0,0l0-8.6c0-1.4,0-2.9-0.3-4.3c-0.2-0.7-0.5-1.4-0.9-1.9c-1.2-1.3-3.4-1.5-4.6-0.1c0-1.5,0.7-2.5,2.6-2.2
		c-1-0.6-0.5-1.4,0.6-1c0.8,0.4,1.7,1.2,2.2,2c-0.1-0.6-0.3-1.3-0.3-1.4c-0.2-0.5-0.4-1-0.7-1.5c-1.4-2.3-3.9-3.8-6.9-4.1
		c-1.8-0.2-3.5-0.1-5.1,0.1c-2.1,0.2-4.1,0.4-6.2-0.1l0,0l0,0c0,0,0,0,0,0c-0.3-0.1-0.6-0.2-0.9-0.3c-0.3-0.1-0.6-0.2-0.8-0.4
		c-1.3-0.7-2.3-1.9-2.6-3.3c-0.3-1.1-0.3-3.1,0.9-3.7c0.7-0.3,1.9-0.2,2.1,0.8c0.2,1.1-1.4,1.3-1.7,0.5l0,0c0,0-0.1-0.1-0.1-0.1
		c-0.1,0-0.2,0-0.2,0.1c0,0.2-0.1,0.4-0.1,0.5c-0.1,1.3,0.2,2.4,1,3.3c0.7,0.8,1.8,1.4,3.1,1.6l0,0c0.3,0,0.5,0.1,0.8,0.1
		c1.7,0.2,3.4,0.1,5.1-0.1c2.7-0.2,5.4-0.4,8.1,0.7c2.8,1.1,4.4,3,5.2,5.3c1,2.7,0.9,6.1,0.9,9.1v13.1h0v53.2v15.2v1.8V114.2z
		 M0.3,237.2L0.3,237.2l0,13.1c0,3.1-0.1,6.4,0.9,9.1c0.8,2.3,2.4,4.2,5.2,5.3c2.6,1.1,5.3,0.9,8.1,0.7c1.7-0.1,3.4-0.2,5.1-0.1
		c0.3,0,0.5,0.1,0.8,0.1h0c1.3,0.3,2.4,0.8,3.1,1.6c0.7,0.8,1.1,1.9,1,3.3c0,0.2,0,0.4-0.1,0.5c0,0.1-0.1,0.1-0.2,0.1
		c-0.1,0-0.1,0-0.1-0.1h0c-0.4-0.7-1.9-0.6-1.7,0.5c0.2,0.9,1.4,1.1,2.1,0.8c1.2-0.6,1.2-2.6,0.9-3.7c-0.3-1.4-1.3-2.5-2.6-3.3
		c-0.3-0.1-0.5-0.3-0.8-0.4c-0.3-0.1-0.6-0.2-0.9-0.3c0,0,0,0,0,0h0h0c-2.1-0.5-4.1-0.3-6.2-0.1c-1.7,0.1-3.4,0.3-5.1,0.1
		c-3-0.3-5.4-1.8-6.9-4.1c-0.3-0.5-0.5-0.9-0.7-1.5c0-0.1-0.2-0.8-0.3-1.3c0.5,0.8,1.3,1.7,2.2,2c1,0.4,1.6-0.4,0.6-1
		c1.8,0.3,2.5-0.7,2.6-2.2c-1.1,1.5-3.4,1.3-4.6-0.1c-0.5-0.5-0.7-1.2-0.9-1.9c-0.4-1.4-0.3-2.9-0.3-4.3l0-13.1h0V184h0l0-24.7v-1.9
		l0-5.5h0v-32.7h0v-12.5l0-14.9h0V38.7h0l0-13.1c0-1.4,0-2.9,0.3-4.3c0.2-0.7,0.5-1.4,0.9-1.9C3.7,18.2,6,18,7.1,19.4
		c0-1.5-0.7-2.5-2.6-2.2c1-0.6,0.5-1.4-0.6-1c-0.8,0.4-1.7,1.2-2.2,2c0.1-0.6,0.3-1.3,0.3-1.4c0.2-0.5,0.4-1,0.7-1.5
		c1.4-2.3,3.9-3.8,6.9-4.1c1.8-0.2,3.5-0.1,5.1,0.1c2.1,0.2,4.1,0.4,6.2-0.1l0,0l0,0c0,0,0,0,0,0c0.3-0.1,0.6-0.2,0.9-0.3
		c0.3-0.1,0.6-0.2,0.8-0.4c1.3-0.7,2.3-1.9,2.6-3.3c0.3-1.1,0.3-3.1-0.9-3.7c-0.7-0.3-1.9-0.2-2.1,0.8c-0.2,1.1,1.4,1.3,1.7,0.5l0,0
		c0,0,0.1-0.1,0.1-0.1c0.1,0,0.2,0,0.2,0.1c0,0.2,0.1,0.4,0.1,0.5c0.1,1.3-0.2,2.4-1,3.3c-0.7,0.8-1.8,1.4-3.1,1.6l0,0
		c-0.3,0-0.5,0.1-0.8,0.1c-1.7,0.2-3.4,0.1-5.1-0.1c-2.7-0.2-5.4-0.4-8.1,0.7c-2.8,1.1-4.4,3-5.2,5.3c-1,2.7-0.9,6.1-0.9,9.1v13.1h0
		v53.2h0l0,27.4h0V152h0v5.5h0V184h0V237.2z"/>
</g>
</svg>
